<svg version="1.1" id="Layer_1" xmlns="http://www.w3.org/2000/svg" xmlns:xlink="http://www.w3.org/1999/xlink" x="0px" y="0px"
	 width="100%" viewBox="0 0 2000 2000" enable-background="new 0 0 2000 2000" xml:space="preserve">
<path fill="#000000" opacity="1.000000" stroke="none" 
	d="
M1267.000000,2001.000000 
	C844.666687,2001.000000 422.833344,2001.000000 1.000000,2001.000000 
	C1.000000,1334.333374 1.000000,667.666687 1.000000,1.000000 
	C667.666687,1.000000 1334.333374,1.000000 2001.000000,1.000000 
	C2001.000000,667.666687 2001.000000,1334.333374 2001.000000,2001.000000 
	C1756.500000,2001.000000 1512.000000,2001.000000 1267.000000,2001.000000 
M900.000000,1439.500000 
	C900.000000,1482.164551 899.968628,1524.829102 900.025757,1567.493652 
	C900.037598,1576.317017 902.897034,1578.949463 911.204285,1578.959961 
	C970.370483,1579.035156 1029.536865,1578.973999 1088.703247,1579.040283 
	C1094.614990,1579.046875 1099.194458,1575.819092 1099.171143,1568.730957 
	C1098.902832,1486.899048 1098.992920,1405.065796 1099.005981,1323.232910 
	C1099.008545,1306.853394 1098.200562,1290.424194 1102.943604,1274.395264 
	C1104.989746,1267.480469 1105.581543,1260.009155 1108.421753,1253.481567 
	C1114.527466,1239.448975 1120.533203,1225.147461 1128.688110,1212.293701 
	C1137.199585,1198.877686 1147.659546,1186.565918 1158.227783,1174.620972 
	C1171.067139,1160.109009 1186.615967,1148.355957 1203.018555,1138.313232 
	C1216.769043,1129.894287 1231.887695,1123.650757 1246.602417,1116.883057 
	C1259.968262,1110.735840 1274.087402,1107.911011 1288.921387,1107.932373 
	C1381.754028,1108.066406 1474.586914,1107.972534 1567.419800,1108.061401 
	C1573.611694,1108.067383 1576.170166,1106.844727 1576.139160,1099.328247 
	C1575.890137,1038.996338 1576.000366,978.662781 1575.999756,918.329773 
	C1575.999634,911.950134 1574.383545,910.158325 1568.037476,910.019348 
	C1550.286133,909.630493 1532.534180,909.197083 1514.780151,909.026978 
	C1471.361816,908.610901 1427.941895,908.380981 1384.523438,907.981873 
	C1359.103516,907.748108 1333.682129,907.472168 1308.267822,906.923096 
	C1299.610718,906.736023 1290.743774,906.667053 1282.375366,904.768921 
	C1266.359009,901.136108 1250.129517,897.709595 1235.386963,889.989197 
	C1222.340942,883.157349 1209.182129,876.448669 1196.672485,868.716125 
	C1187.568359,863.088623 1178.939697,856.433655 1171.008545,849.234863 
	C1161.814819,840.890198 1153.168213,831.832275 1145.098022,822.388489 
	C1134.715820,810.239319 1125.772461,796.932068 1119.094482,782.362610 
	C1113.807495,770.827942 1108.673584,759.123413 1104.819580,747.063477 
	C1101.807129,737.637024 1099.293945,727.557312 1099.245728,717.754639 
	C1098.821777,631.423828 1099.000000,545.090088 1099.000000,458.757233 
	C1099.000000,450.064758 1096.876099,448.001129 1087.900635,448.000854 
	C1029.234253,447.999207 970.567688,448.070862 911.901672,447.926422 
	C902.718811,447.903809 900.030945,450.484497 900.025940,460.188599 
	C899.981201,546.521484 899.861633,632.854797 900.134399,719.186829 
	C900.180603,733.810791 898.571350,747.928833 892.846558,761.327698 
	C888.347412,771.858032 883.758911,782.469177 877.932983,792.286560 
	C868.583984,808.040894 857.158081,822.408325 843.742920,834.941345 
	C834.727905,843.363525 825.510864,851.778076 815.391479,858.756653 
	C802.768799,867.461609 789.297729,874.998230 775.855408,882.428650 
	C768.349976,886.577393 760.257446,889.736877 752.244934,892.870605 
	C746.781799,895.007202 741.005676,896.348755 735.357727,898.005859 
	C732.160828,898.943787 728.975403,899.966064 725.722900,900.660339 
	C718.493164,902.203857 711.245850,904.639404 703.967346,904.784546 
	C686.894958,905.124878 669.800171,904.327026 652.714172,904.001709 
	C634.795227,903.660583 616.876587,903.089722 598.956726,903.045898 
	C546.290649,902.917114 493.624054,902.994995 440.957672,903.007324 
	C435.296539,903.008667 433.035370,905.287048 433.006409,910.934082 
	C432.977325,916.600525 433.000000,922.267273 433.000000,927.933899 
	C433.000000,983.433594 432.998779,1038.933350 433.001923,1094.432983 
	C433.002228,1099.684692 434.753204,1101.910645 439.090668,1101.989746 
	C476.595245,1102.674072 514.098022,1103.678345 551.605652,1103.916626 
	C603.769897,1104.248169 655.940796,1103.712891 708.101990,1104.230835 
	C719.160461,1104.340698 730.398682,1106.573608 741.170654,1109.327881 
	C750.938416,1111.825562 760.595764,1115.566650 769.566345,1120.187378 
	C784.502075,1127.880859 799.492554,1135.786133 813.274841,1145.316040 
	C828.813721,1156.060669 842.270508,1169.470825 854.570618,1183.975098 
	C867.170227,1198.832520 877.378479,1215.189331 885.885742,1232.592773 
	C889.630005,1240.252563 891.860107,1248.638184 895.274719,1256.477783 
	C898.570190,1264.043945 900.081055,1271.748291 900.062073,1280.000977 
	C899.940369,1332.833740 900.000000,1385.666992 900.000000,1439.500000 
M1241.500000,1313.000000 
	C1228.333618,1313.000000 1215.167114,1313.000000 1202.000732,1313.000000 
	C1196.334351,1313.000000 1190.652954,1312.765747 1185.009399,1313.124878 
	C1182.985229,1313.253662 1180.546997,1314.393555 1179.294189,1315.900391 
	C1178.682373,1316.636475 1179.889648,1319.708130 1181.072998,1320.976562 
	C1187.545654,1327.914307 1194.108154,1334.784668 1200.936279,1341.370605 
	C1213.242432,1353.240112 1225.777466,1364.871826 1238.181763,1376.640015 
	C1251.744385,1389.507324 1265.269653,1402.413818 1278.806152,1415.308472 
	C1286.220703,1422.371338 1293.660645,1429.408081 1301.026245,1436.521606 
	C1321.501221,1456.295776 1341.961914,1476.084839 1362.391724,1495.905640 
	C1376.037598,1509.144653 1389.603638,1522.465942 1403.237183,1535.717773 
	C1414.852051,1547.007446 1426.542114,1558.219849 1438.139648,1569.527222 
	C1443.841187,1575.086182 1449.496826,1579.690552 1458.505981,1579.190674 
	C1471.797729,1578.452881 1485.160889,1579.000000 1498.493652,1579.000000 
	C1521.326050,1579.000000 1544.158325,1579.015991 1566.990723,1578.990967 
	C1574.391846,1578.982788 1575.999878,1577.366699 1575.999878,1570.217896 
	C1576.000000,1525.386475 1575.877197,1480.554321 1576.132690,1435.724365 
	C1576.170776,1429.021484 1574.783569,1424.294312 1569.417358,1419.549438 
	C1556.620239,1408.233398 1544.782593,1395.837769 1532.443848,1383.996582 
	C1519.958252,1372.014648 1507.277100,1360.236694 1494.787354,1348.259033 
	C1475.907959,1330.153687 1457.109741,1311.963501 1438.297363,1293.788452 
	C1427.127441,1282.997070 1416.011475,1272.149658 1404.844727,1261.355103 
	C1385.651489,1242.801758 1366.419067,1224.289062 1347.238647,1205.722534 
	C1334.534790,1193.425293 1321.894287,1181.062866 1309.219604,1168.735474 
	C1308.632446,1168.164307 1308.051025,1167.549438 1307.361328,1167.127808 
	C1303.516357,1164.776978 1300.687378,1166.062134 1300.037109,1170.500244 
	C1299.845825,1171.805786 1300.000366,1173.162476 1300.000366,1174.495728 
	C1299.999878,1218.827148 1300.000000,1263.158691 1300.000000,1307.490112 
	C1300.000000,1309.255737 1300.000000,1311.021362 1300.000000,1313.000000 
	C1280.453369,1313.000000 1261.476685,1313.000000 1241.500000,1313.000000 
M1380.412109,510.060150 
	C1379.464233,511.060394 1378.553955,512.099609 1377.562622,513.054810 
	C1367.945068,522.321411 1358.252686,531.511169 1348.698975,540.843018 
	C1326.415771,562.608948 1304.242432,584.487488 1281.937622,606.231384 
	C1265.608521,622.149963 1249.034302,637.817993 1232.765137,653.797119 
	C1216.001587,670.261780 1199.432617,686.925537 1182.927734,703.649536 
	C1181.613403,704.981445 1180.801392,707.501709 1180.917236,709.398804 
	C1181.118408,712.693298 1184.089478,711.992676 1186.317749,711.993286 
	C1222.307739,712.002808 1258.297852,712.000000 1294.287842,712.000000 
	C1296.072388,712.000000 1297.856934,712.000000 1300.000000,712.000000 
	C1300.000000,714.213013 1300.000000,716.005066 1300.000000,717.797180 
	C1300.000000,763.117920 1299.969360,808.438782 1300.101807,853.759155 
	C1300.107666,855.763611 1301.260376,859.144348 1302.481934,859.446594 
	C1304.376831,859.915283 1307.227051,858.816467 1308.902222,857.443054 
	C1313.612061,853.581543 1318.053345,849.365784 1322.379028,845.066895 
	C1343.379150,824.196655 1364.212769,803.158142 1385.301758,782.378540 
	C1395.148193,772.676453 1405.588989,763.579529 1415.496826,753.937561 
	C1435.959106,734.024536 1456.219727,713.904602 1476.613281,693.920715 
	C1487.171753,683.574219 1497.889893,673.390747 1508.437378,663.033142 
	C1517.487305,654.146179 1526.329590,645.047607 1535.385132,636.166687 
	C1547.576172,624.210938 1559.772461,612.255371 1572.227539,600.578003 
	C1574.987305,597.990601 1576.060425,595.485352 1576.053833,591.844421 
	C1575.971558,546.357239 1575.930542,500.869568 1576.095093,455.382782 
	C1576.113892,450.176880 1575.678345,447.992035 1568.682739,447.994141 
	C1528.860474,448.006195 1489.037720,447.931549 1449.216675,448.149597 
	C1446.474731,448.164581 1443.199585,449.709991 1441.105591,451.585510 
	C1433.108398,458.748291 1425.459473,466.302734 1417.743286,473.775787 
	C1405.460083,485.671906 1393.227051,497.619934 1380.412109,510.060150 
M567.653198,1301.039307 
	C566.683105,1302.041992 565.737122,1303.069214 564.739319,1304.043457 
	C550.397644,1318.047974 536.077942,1332.075073 521.692688,1346.034668 
	C510.818207,1356.587524 499.796906,1366.989380 488.950348,1377.570557 
	C472.721375,1393.402222 456.698883,1409.447266 440.352509,1425.156006 
	C434.948334,1430.349365 432.706390,1435.828369 432.788483,1443.597168 
	C433.234070,1485.748047 432.999939,1527.905884 433.000061,1570.061401 
	C433.000092,1577.415649 434.554840,1578.997925 441.832916,1578.998535 
	C481.822296,1579.001709 521.811829,1578.949219 561.800781,1579.079468 
	C565.742004,1579.092407 568.662537,1577.777832 571.337952,1575.161255 
	C586.688538,1560.147461 602.101868,1545.197632 617.423767,1530.154541 
	C625.754395,1521.975586 633.896484,1513.604980 642.211670,1505.410034 
	C657.431213,1490.410645 672.713135,1475.474487 687.975708,1460.518921 
	C691.560486,1457.005981 695.091248,1453.432251 698.792175,1450.045288 
	C703.340515,1445.882812 708.278809,1442.124146 712.628906,1437.771484 
	C723.044312,1427.349609 733.029968,1416.495239 743.533142,1406.165283 
	C754.708618,1395.173828 766.315063,1384.621826 777.668091,1373.809448 
	C786.820923,1365.092285 795.932373,1356.330078 804.958984,1347.482422 
	C813.075623,1339.526611 820.856873,1331.216675 829.198486,1323.509399 
	C832.003906,1320.917358 834.224548,1318.071167 832.659119,1315.008911 
	C831.733337,1313.197998 827.753296,1312.134033 825.140564,1312.122437 
	C785.318604,1311.946533 745.495667,1312.000000 705.672913,1312.000000 
	C703.892090,1312.000000 702.111267,1312.000000 700.000000,1312.000000 
	C700.000000,1309.921143 700.000000,1308.292114 700.000000,1306.663208 
	C700.000000,1265.507446 700.021484,1224.351807 699.927979,1183.196167 
	C699.923889,1181.386108 698.867493,1179.578247 698.301270,1177.769409 
	C696.288025,1178.592529 693.870728,1178.961426 692.338318,1180.324829 
	C687.995178,1184.189331 684.078308,1188.527710 679.878784,1192.559570 
	C665.028748,1206.816528 650.061279,1220.951782 635.271912,1235.271240 
	C622.428833,1247.706299 609.769287,1260.330811 597.023987,1272.866821 
	C587.502319,1282.232056 577.973022,1291.589355 567.653198,1301.039307 
M790.500000,712.000000 
	C800.329224,712.000000 810.164246,712.177429 819.982788,711.854370 
	C822.011841,711.787598 824.898621,710.302734 825.697021,708.652466 
	C826.388428,707.223145 825.299377,703.993042 823.927185,702.661560 
	C816.500610,695.455078 808.582520,688.756104 801.135803,681.569275 
	C791.158875,671.940430 781.572815,661.906860 771.609070,652.264038 
	C759.727844,640.765564 747.585999,629.536865 735.629211,618.115845 
	C725.623840,608.558838 715.740784,598.874023 705.770508,589.280151 
	C690.742920,574.820068 675.723877,560.350891 660.631348,545.958740 
	C647.252686,533.200989 633.651001,520.674927 620.379700,507.807373 
	C604.136047,492.057892 587.785217,476.392212 572.168762,460.033478 
	C563.858459,451.328125 554.749939,447.461823 542.737976,447.830841 
	C522.597473,448.449493 502.424164,448.000000 482.264679,448.000000 
	C469.102692,448.000000 455.940613,447.976166 442.778717,448.011017 
	C437.018127,448.026245 432.767822,450.474579 432.823517,457.573578 
	C433.172668,502.055054 433.266937,546.543518 432.774933,591.022278 
	C432.676422,599.924683 435.528778,606.231445 442.020660,611.524475 
	C443.402283,612.650940 444.975677,613.565369 446.251892,614.794312 
	C457.126801,625.265930 467.901520,635.841919 478.806671,646.281799 
	C495.167908,661.944824 511.649475,677.482300 527.994263,693.162354 
	C532.762512,697.736633 537.109497,702.749817 541.874756,707.327454 
	C555.217773,720.145020 568.706665,732.810608 582.085388,745.591187 
	C598.276672,761.058472 614.455566,776.539062 630.560425,792.096130 
	C641.852356,803.004028 652.965637,814.096680 664.243958,825.018738 
	C673.553467,834.034119 682.909729,843.005615 692.450623,851.773010 
	C693.890991,853.096558 696.450073,853.202515 698.491699,853.871765 
	C698.994446,852.071899 699.932861,850.272766 699.936218,848.471985 
	C700.018005,804.820984 700.061707,761.169556 699.905518,717.518982 
	C699.889709,713.107605 701.134094,711.874573 705.530518,711.904114 
	C733.519287,712.092407 761.509949,712.000000 790.500000,712.000000 
z"/>
<path fill="#FFFFFF" opacity="1.000000" stroke="none" 
	d="
M900.000000,1439.000000 
	C900.000000,1385.666992 899.940369,1332.833740 900.062073,1280.000977 
	C900.081055,1271.748291 898.570190,1264.043945 895.274719,1256.477783 
	C891.860107,1248.638184 889.630005,1240.252563 885.885742,1232.592773 
	C877.378479,1215.189331 867.170227,1198.832520 854.570618,1183.975098 
	C842.270508,1169.470825 828.813721,1156.060669 813.274841,1145.316040 
	C799.492554,1135.786133 784.502075,1127.880859 769.566345,1120.187378 
	C760.595764,1115.566650 750.938416,1111.825562 741.170654,1109.327881 
	C730.398682,1106.573608 719.160461,1104.340698 708.101990,1104.230835 
	C655.940796,1103.712891 603.769897,1104.248169 551.605652,1103.916626 
	C514.098022,1103.678345 476.595245,1102.674072 439.090668,1101.989746 
	C434.753204,1101.910645 433.002228,1099.684692 433.001923,1094.432983 
	C432.998779,1038.933350 433.000000,983.433594 433.000000,927.933899 
	C433.000000,922.267273 432.977325,916.600525 433.006409,910.934082 
	C433.035370,905.287048 435.296539,903.008667 440.957672,903.007324 
	C493.624054,902.994995 546.290649,902.917114 598.956726,903.045898 
	C616.876587,903.089722 634.795227,903.660583 652.714172,904.001709 
	C669.800171,904.327026 686.894958,905.124878 703.967346,904.784546 
	C711.245850,904.639404 718.493164,902.203857 725.722900,900.660339 
	C728.975403,899.966064 732.160828,898.943787 735.357727,898.005859 
	C741.005676,896.348755 746.781799,895.007202 752.244934,892.870605 
	C760.257446,889.736877 768.349976,886.577393 775.855408,882.428650 
	C789.297729,874.998230 802.768799,867.461609 815.391479,858.756653 
	C825.510864,851.778076 834.727905,843.363525 843.742920,834.941345 
	C857.158081,822.408325 868.583984,808.040894 877.932983,792.286560 
	C883.758911,782.469177 888.347412,771.858032 892.846558,761.327698 
	C898.571350,747.928833 900.180603,733.810791 900.134399,719.186829 
	C899.861633,632.854797 899.981201,546.521484 900.025940,460.188599 
	C900.030945,450.484497 902.718811,447.903809 911.901672,447.926422 
	C970.567688,448.070862 1029.234253,447.999207 1087.900635,448.000854 
	C1096.876099,448.001129 1099.000000,450.064758 1099.000000,458.757233 
	C1099.000000,545.090088 1098.821777,631.423828 1099.245728,717.754639 
	C1099.293945,727.557312 1101.807129,737.637024 1104.819580,747.063477 
	C1108.673584,759.123413 1113.807495,770.827942 1119.094482,782.362610 
	C1125.772461,796.932068 1134.715820,810.239319 1145.098022,822.388489 
	C1153.168213,831.832275 1161.814819,840.890198 1171.008545,849.234863 
	C1178.939697,856.433655 1187.568359,863.088623 1196.672485,868.716125 
	C1209.182129,876.448669 1222.340942,883.157349 1235.386963,889.989197 
	C1250.129517,897.709595 1266.359009,901.136108 1282.375366,904.768921 
	C1290.743774,906.667053 1299.610718,906.736023 1308.267822,906.923096 
	C1333.682129,907.472168 1359.103516,907.748108 1384.523438,907.981873 
	C1427.941895,908.380981 1471.361816,908.610901 1514.780151,909.026978 
	C1532.534180,909.197083 1550.286133,909.630493 1568.037476,910.019348 
	C1574.383545,910.158325 1575.999634,911.950134 1575.999756,918.329773 
	C1576.000366,978.662781 1575.890137,1038.996338 1576.139160,1099.328247 
	C1576.170166,1106.844727 1573.611694,1108.067383 1567.419800,1108.061401 
	C1474.586914,1107.972534 1381.754028,1108.066406 1288.921387,1107.932373 
	C1274.087402,1107.911011 1259.968262,1110.735840 1246.602417,1116.883057 
	C1231.887695,1123.650757 1216.769043,1129.894287 1203.018555,1138.313232 
	C1186.615967,1148.355957 1171.067139,1160.109009 1158.227783,1174.620972 
	C1147.659546,1186.565918 1137.199585,1198.877686 1128.688110,1212.293701 
	C1120.533203,1225.147461 1114.527466,1239.448975 1108.421753,1253.481567 
	C1105.581543,1260.009155 1104.989746,1267.480469 1102.943604,1274.395264 
	C1098.200562,1290.424194 1099.008545,1306.853394 1099.005981,1323.232910 
	C1098.992920,1405.065796 1098.902832,1486.899048 1099.171143,1568.730957 
	C1099.194458,1575.819092 1094.614990,1579.046875 1088.703247,1579.040283 
	C1029.536865,1578.973999 970.370483,1579.035156 911.204285,1578.959961 
	C902.897034,1578.949463 900.037598,1576.317017 900.025757,1567.493652 
	C899.968628,1524.829102 900.000000,1482.164551 900.000000,1439.000000 
M941.006104,904.490662 
	C931.332153,914.368042 922.049927,924.671997 911.880981,934.010315 
	C900.261902,944.680176 888.330017,955.136414 875.650635,964.487671 
	C863.681702,973.315002 850.610046,980.658508 837.934448,988.511047 
	C832.210266,992.057251 826.270325,995.255127 819.966370,998.876404 
	C858.449951,1018.519531 892.811951,1043.559082 923.148743,1073.832886 
	C953.440735,1104.062134 978.707886,1138.211792 999.001892,1177.897949 
	C1040.564819,1099.034424 1100.070557,1040.096924 1178.153442,998.662231 
	C1099.622559,957.161987 1040.241211,898.037781 999.151917,819.645752 
	C992.800110,830.965881 987.610107,841.060974 981.613403,850.651794 
	C976.208801,859.295532 970.130127,867.545471 963.967896,875.680725 
	C956.697205,885.279236 949.017090,894.567688 941.006104,904.490662 
z"/>
<path fill="#FFFFFF" opacity="1.000000" stroke="none" 
	d="
M1242.000000,1313.000000 
	C1261.476685,1313.000000 1280.453369,1313.000000 1300.000000,1313.000000 
	C1300.000000,1311.021362 1300.000000,1309.255737 1300.000000,1307.490112 
	C1300.000000,1263.158691 1299.999878,1218.827148 1300.000366,1174.495728 
	C1300.000366,1173.162476 1299.845825,1171.805786 1300.037109,1170.500244 
	C1300.687378,1166.062134 1303.516357,1164.776978 1307.361328,1167.127808 
	C1308.051025,1167.549438 1308.632446,1168.164307 1309.219604,1168.735474 
	C1321.894287,1181.062866 1334.534790,1193.425293 1347.238647,1205.722534 
	C1366.419067,1224.289062 1385.651489,1242.801758 1404.844727,1261.355103 
	C1416.011475,1272.149658 1427.127441,1282.997070 1438.297363,1293.788452 
	C1457.109741,1311.963501 1475.907959,1330.153687 1494.787354,1348.259033 
	C1507.277100,1360.236694 1519.958252,1372.014648 1532.443848,1383.996582 
	C1544.782593,1395.837769 1556.620239,1408.233398 1569.417358,1419.549438 
	C1574.783569,1424.294312 1576.170776,1429.021484 1576.132690,1435.724365 
	C1575.877197,1480.554321 1576.000000,1525.386475 1575.999878,1570.217896 
	C1575.999878,1577.366699 1574.391846,1578.982788 1566.990723,1578.990967 
	C1544.158325,1579.015991 1521.326050,1579.000000 1498.493652,1579.000000 
	C1485.160889,1579.000000 1471.797729,1578.452881 1458.505981,1579.190674 
	C1449.496826,1579.690552 1443.841187,1575.086182 1438.139648,1569.527222 
	C1426.542114,1558.219849 1414.852051,1547.007446 1403.237183,1535.717773 
	C1389.603638,1522.465942 1376.037598,1509.144653 1362.391724,1495.905640 
	C1341.961914,1476.084839 1321.501221,1456.295776 1301.026245,1436.521606 
	C1293.660645,1429.408081 1286.220703,1422.371338 1278.806152,1415.308472 
	C1265.269653,1402.413818 1251.744385,1389.507324 1238.181763,1376.640015 
	C1225.777466,1364.871826 1213.242432,1353.240112 1200.936279,1341.370605 
	C1194.108154,1334.784668 1187.545654,1327.914307 1181.072998,1320.976562 
	C1179.889648,1319.708130 1178.682373,1316.636475 1179.294189,1315.900391 
	C1180.546997,1314.393555 1182.985229,1313.253662 1185.009399,1313.124878 
	C1190.652954,1312.765747 1196.334351,1313.000000 1202.000732,1313.000000 
	C1215.167114,1313.000000 1228.333618,1313.000000 1242.000000,1313.000000 
z"/>
<path fill="#FFFFFF" opacity="1.000000" stroke="none" 
	d="
M1380.692505,509.803101 
	C1393.227051,497.619934 1405.460083,485.671906 1417.743286,473.775787 
	C1425.459473,466.302734 1433.108398,458.748291 1441.105591,451.585510 
	C1443.199585,449.709991 1446.474731,448.164581 1449.216675,448.149597 
	C1489.037720,447.931549 1528.860474,448.006195 1568.682739,447.994141 
	C1575.678345,447.992035 1576.113892,450.176880 1576.095093,455.382782 
	C1575.930542,500.869568 1575.971558,546.357239 1576.053833,591.844421 
	C1576.060425,595.485352 1574.987305,597.990601 1572.227539,600.578003 
	C1559.772461,612.255371 1547.576172,624.210938 1535.385132,636.166687 
	C1526.329590,645.047607 1517.487305,654.146179 1508.437378,663.033142 
	C1497.889893,673.390747 1487.171753,683.574219 1476.613281,693.920715 
	C1456.219727,713.904602 1435.959106,734.024536 1415.496826,753.937561 
	C1405.588989,763.579529 1395.148193,772.676453 1385.301758,782.378540 
	C1364.212769,803.158142 1343.379150,824.196655 1322.379028,845.066895 
	C1318.053345,849.365784 1313.612061,853.581543 1308.902222,857.443054 
	C1307.227051,858.816467 1304.376831,859.915283 1302.481934,859.446594 
	C1301.260376,859.144348 1300.107666,855.763611 1300.101807,853.759155 
	C1299.969360,808.438782 1300.000000,763.117920 1300.000000,717.797180 
	C1300.000000,716.005066 1300.000000,714.213013 1300.000000,712.000000 
	C1297.856934,712.000000 1296.072388,712.000000 1294.287842,712.000000 
	C1258.297852,712.000000 1222.307739,712.002808 1186.317749,711.993286 
	C1184.089478,711.992676 1181.118408,712.693298 1180.917236,709.398804 
	C1180.801392,707.501709 1181.613403,704.981445 1182.927734,703.649536 
	C1199.432617,686.925537 1216.001587,670.261780 1232.765137,653.797119 
	C1249.034302,637.817993 1265.608521,622.149963 1281.937622,606.231384 
	C1304.242432,584.487488 1326.415771,562.608948 1348.698975,540.843018 
	C1358.252686,531.511169 1367.945068,522.321411 1377.562622,513.054810 
	C1378.553955,512.099609 1379.464233,511.060394 1380.692505,509.803101 
z"/>
<path fill="#FFFFFF" opacity="1.000000" stroke="none" 
	d="
M568.050171,1300.994873 
	C577.973022,1291.589355 587.502319,1282.232056 597.023987,1272.866821 
	C609.769287,1260.330811 622.428833,1247.706299 635.271912,1235.271240 
	C650.061279,1220.951782 665.028748,1206.816528 679.878784,1192.559570 
	C684.078308,1188.527710 687.995178,1184.189331 692.338318,1180.324829 
	C693.870728,1178.961426 696.288025,1178.592529 698.301270,1177.769409 
	C698.867493,1179.578247 699.923889,1181.386108 699.927979,1183.196167 
	C700.021484,1224.351807 700.000000,1265.507446 700.000000,1306.663208 
	C700.000000,1308.292114 700.000000,1309.921143 700.000000,1312.000000 
	C702.111267,1312.000000 703.892090,1312.000000 705.672913,1312.000000 
	C745.495667,1312.000000 785.318604,1311.946533 825.140564,1312.122437 
	C827.753296,1312.134033 831.733337,1313.197998 832.659119,1315.008911 
	C834.224548,1318.071167 832.003906,1320.917358 829.198486,1323.509399 
	C820.856873,1331.216675 813.075623,1339.526611 804.958984,1347.482422 
	C795.932373,1356.330078 786.820923,1365.092285 777.668091,1373.809448 
	C766.315063,1384.621826 754.708618,1395.173828 743.533142,1406.165283 
	C733.029968,1416.495239 723.044312,1427.349609 712.628906,1437.771484 
	C708.278809,1442.124146 703.340515,1445.882812 698.792175,1450.045288 
	C695.091248,1453.432251 691.560486,1457.005981 687.975708,1460.518921 
	C672.713135,1475.474487 657.431213,1490.410645 642.211670,1505.410034 
	C633.896484,1513.604980 625.754395,1521.975586 617.423767,1530.154541 
	C602.101868,1545.197632 586.688538,1560.147461 571.337952,1575.161255 
	C568.662537,1577.777832 565.742004,1579.092407 561.800781,1579.079468 
	C521.811829,1578.949219 481.822296,1579.001709 441.832916,1578.998535 
	C434.554840,1578.997925 433.000092,1577.415649 433.000061,1570.061401 
	C432.999939,1527.905884 433.234070,1485.748047 432.788483,1443.597168 
	C432.706390,1435.828369 434.948334,1430.349365 440.352509,1425.156006 
	C456.698883,1409.447266 472.721375,1393.402222 488.950348,1377.570557 
	C499.796906,1366.989380 510.818207,1356.587524 521.692688,1346.034668 
	C536.077942,1332.075073 550.397644,1318.047974 564.739319,1304.043457 
	C565.737122,1303.069214 566.683105,1302.041992 568.050171,1300.994873 
z"/>
<path fill="#FFFFFF" opacity="1.000000" stroke="none" 
	d="
M790.000000,712.000000 
	C761.509949,712.000000 733.519287,712.092407 705.530518,711.904114 
	C701.134094,711.874573 699.889709,713.107605 699.905518,717.518982 
	C700.061707,761.169556 700.018005,804.820984 699.936218,848.471985 
	C699.932861,850.272766 698.994446,852.071899 698.491699,853.871765 
	C696.450073,853.202515 693.890991,853.096558 692.450623,851.773010 
	C682.909729,843.005615 673.553467,834.034119 664.243958,825.018738 
	C652.965637,814.096680 641.852356,803.004028 630.560425,792.096130 
	C614.455566,776.539062 598.276672,761.058472 582.085388,745.591187 
	C568.706665,732.810608 555.217773,720.145020 541.874756,707.327454 
	C537.109497,702.749817 532.762512,697.736633 527.994263,693.162354 
	C511.649475,677.482300 495.167908,661.944824 478.806671,646.281799 
	C467.901520,635.841919 457.126801,625.265930 446.251892,614.794312 
	C444.975677,613.565369 443.402283,612.650940 442.020660,611.524475 
	C435.528778,606.231445 432.676422,599.924683 432.774933,591.022278 
	C433.266937,546.543518 433.172668,502.055054 432.823517,457.573578 
	C432.767822,450.474579 437.018127,448.026245 442.778717,448.011017 
	C455.940613,447.976166 469.102692,448.000000 482.264679,448.000000 
	C502.424164,448.000000 522.597473,448.449493 542.737976,447.830841 
	C554.749939,447.461823 563.858459,451.328125 572.168762,460.033478 
	C587.785217,476.392212 604.136047,492.057892 620.379700,507.807373 
	C633.651001,520.674927 647.252686,533.200989 660.631348,545.958740 
	C675.723877,560.350891 690.742920,574.820068 705.770508,589.280151 
	C715.740784,598.874023 725.623840,608.558838 735.629211,618.115845 
	C747.585999,629.536865 759.727844,640.765564 771.609070,652.264038 
	C781.572815,661.906860 791.158875,671.940430 801.135803,681.569275 
	C808.582520,688.756104 816.500610,695.455078 823.927185,702.661560 
	C825.299377,703.993042 826.388428,707.223145 825.697021,708.652466 
	C824.898621,710.302734 822.011841,711.787598 819.982788,711.854370 
	C810.164246,712.177429 800.329224,712.000000 790.000000,712.000000 
z"/>
<path fill="#000000" opacity="1.000000" stroke="none" 
	d="
M941.260315,904.240601 
	C949.017090,894.567688 956.697205,885.279236 963.967896,875.680725 
	C970.130127,867.545471 976.208801,859.295532 981.613403,850.651794 
	C987.610107,841.060974 992.800110,830.965881 999.151917,819.645752 
	C1040.241211,898.037781 1099.622559,957.161987 1178.153442,998.662231 
	C1100.070557,1040.096924 1040.564819,1099.034424 999.001892,1177.897949 
	C978.707886,1138.211792 953.440735,1104.062134 923.148743,1073.832886 
	C892.811951,1043.559082 858.449951,1018.519531 819.966370,998.876404 
	C826.270325,995.255127 832.210266,992.057251 837.934448,988.511047 
	C850.610046,980.658508 863.681702,973.315002 875.650635,964.487671 
	C888.330017,955.136414 900.261902,944.680176 911.880981,934.010315 
	C922.049927,924.671997 931.332153,914.368042 941.260315,904.240601 
z"/>
</svg>